<svg width="24" height="24" viewBox="0 0 24 24" fill="none" xmlns="http://www.w3.org/2000/svg">
<g clip-path="url(#clip0_78_5873)">
<path d="M6.04598 16.419L8.44679 14.8087C8.5481 14.7365 8.66681 14.6926 8.79071 14.6816C8.91461 14.6705 9.03922 14.6926 9.15172 14.7457L10.0735 15.2132C10.1891 15.2701 10.3188 15.2919 10.4467 15.2761C10.5746 15.2603 10.6951 15.2076 10.7934 15.1243C12.5167 13.6983 13.6701 11.7005 14.0434 9.49511C14.0664 9.36832 14.0518 9.23758 14.0016 9.11893C13.9513 9.00028 13.8675 8.89888 13.7605 8.82716L12.9212 8.21676C12.8172 8.14824 12.7333 8.0532 12.6783 7.94145C12.6233 7.8297 12.599 7.70528 12.6081 7.58105L12.8023 4.69671L12.8467 3.9579C12.8547 3.85158 12.8866 3.74843 12.94 3.65617C13.0258 3.50642 13.1643 3.3941 13.3286 3.34123C13.7815 3.19048 14.2638 3.14998 14.7355 3.2231C15.2072 3.29622 15.6547 3.48084 16.0407 3.76164L16.2292 3.90512L16.3269 3.97997C16.3723 4.01276 16.416 4.04799 16.4576 4.08549L16.5779 4.20113C18.1658 5.75294 17.8671 9.65428 15.821 13.5282L15.1985 14.6064C12.8696 18.3102 9.64027 20.5195 7.49287 19.9529L7.33258 19.9066C7.27958 19.8894 7.22754 19.8694 7.17668 19.8466L7.06253 19.8003L6.84401 19.7088C6.40804 19.5147 6.02467 19.2194 5.72573 18.8473C5.4268 18.4753 5.22093 18.0374 5.12522 17.5698C5.08889 17.4012 5.11688 17.225 5.2037 17.0759C5.25688 16.9835 5.33024 16.9043 5.41832 16.8442L6.04598 16.419Z" stroke="white" stroke-width="1.5" stroke-miterlimit="10"/>
</g>
<defs>
<clipPath id="clip0_78_5873">
<rect width="24" height="24" fill="white" transform="matrix(-1 0 0 1 24 0)"/>
</clipPath>
</defs>
</svg>
