<svg width="26" height="26" viewBox="0 0 26 26" fill="none" xmlns="http://www.w3.org/2000/svg">
<path fill-rule="evenodd" clip-rule="evenodd" d="M7.70852 0.243992C9.07702 0.180992 9.51335 0.166992 12.9993 0.166992C16.4853 0.166992 16.9217 0.182159 18.289 0.243992C19.6563 0.305826 20.5897 0.523992 21.4063 0.840159C22.2615 1.16333 23.0373 1.66849 23.679 2.32183C24.3323 2.96233 24.8363 3.73699 25.1583 4.59333C25.4757 5.40999 25.6927 6.34333 25.7557 7.70833C25.8187 9.07916 25.8327 9.51549 25.8327 13.0003C25.8327 16.4863 25.8175 16.9227 25.7557 18.2912C25.6938 19.6562 25.4757 20.5895 25.1583 21.4062C24.8363 22.2626 24.3315 23.0386 23.679 23.68C23.0373 24.3333 22.2615 24.8373 21.4063 25.1593C20.5897 25.4767 19.6563 25.6937 18.2913 25.7567C16.9217 25.8197 16.4853 25.8337 12.9993 25.8337C9.51335 25.8337 9.07702 25.8185 7.70852 25.7567C6.34352 25.6948 5.41018 25.4767 4.59352 25.1593C3.73709 24.8373 2.96114 24.3325 2.31968 23.68C1.66679 23.0391 1.16155 22.2635 0.839182 21.4073C0.523016 20.5907 0.306016 19.6573 0.243016 18.2923C0.180016 16.9215 0.166016 16.4852 0.166016 13.0003C0.166016 9.51433 0.181182 9.07799 0.243016 7.71066C0.304849 6.34333 0.523016 5.40999 0.839182 4.59333C1.16203 3.73709 1.66765 2.96152 2.32085 2.32066C2.9614 1.66791 3.73657 1.16268 4.59235 0.840159C5.40902 0.523992 6.34235 0.306992 7.70735 0.243992H7.70852ZM18.1852 2.55399C16.8318 2.49216 16.4258 2.47933 12.9993 2.47933C9.57285 2.47933 9.16685 2.49216 7.81352 2.55399C6.56168 2.61116 5.88268 2.81999 5.43002 2.99616C4.83152 3.22949 4.40335 3.50599 3.95418 3.95516C3.5284 4.36939 3.20073 4.87365 2.99518 5.43099C2.81902 5.88366 2.61018 6.56266 2.55302 7.81449C2.49118 9.16782 2.47835 9.57383 2.47835 13.0003C2.47835 16.4268 2.49118 16.8328 2.55302 18.1862C2.61018 19.438 2.81902 20.117 2.99518 20.5697C3.20052 21.1262 3.52835 21.6313 3.95418 22.0455C4.36835 22.4713 4.87352 22.7992 5.43002 23.0045C5.88268 23.1807 6.56168 23.3895 7.81352 23.4467C9.16685 23.5085 9.57168 23.5213 12.9993 23.5213C16.427 23.5213 16.8318 23.5085 18.1852 23.4467C19.437 23.3895 20.116 23.1807 20.5687 23.0045C21.1672 22.7712 21.5953 22.4947 22.0445 22.0455C22.4703 21.6313 22.7982 21.1262 23.0035 20.5697C23.1797 20.117 23.3885 19.438 23.4457 18.1862C23.5075 16.8328 23.5203 16.4268 23.5203 13.0003C23.5203 9.57383 23.5075 9.16782 23.4457 7.81449C23.3885 6.56266 23.1797 5.88366 23.0035 5.43099C22.7702 4.83249 22.4937 4.40433 22.0445 3.95516C21.6303 3.52941 21.126 3.20174 20.5687 2.99616C20.116 2.81999 19.437 2.61116 18.1852 2.55399ZM11.3602 16.9565C12.2756 17.3376 13.295 17.389 14.2441 17.102C15.1932 16.815 16.0133 16.2074 16.5642 15.3829C17.1151 14.5585 17.3627 13.5683 17.2647 12.5816C17.1667 11.5949 16.7292 10.6728 16.0268 9.97283C15.5791 9.52538 15.0378 9.18277 14.4417 8.96966C13.8457 8.75655 13.2098 8.67825 12.5799 8.74038C11.95 8.80251 11.3417 9.00353 10.7988 9.32898C10.2559 9.65442 9.79188 10.0962 9.4402 10.6225C9.08852 11.1488 8.8579 11.7465 8.76495 12.3726C8.672 12.9987 8.71903 13.6377 8.90265 14.2434C9.08626 14.8492 9.40191 15.4067 9.82686 15.8758C10.2518 16.345 10.7755 16.714 11.3602 16.9565ZM8.33502 8.33599C8.94754 7.72346 9.67472 7.23758 10.475 6.90608C11.2753 6.57458 12.1331 6.40396 12.9993 6.40396C13.8656 6.40396 14.7234 6.57458 15.5237 6.90608C16.324 7.23758 17.0512 7.72346 17.6637 8.33599C18.2762 8.94852 18.7621 9.6757 19.0936 10.476C19.4251 11.2763 19.5957 12.1341 19.5957 13.0003C19.5957 13.8666 19.4251 14.7243 19.0936 15.5246C18.7621 16.325 18.2762 17.0521 17.6637 17.6647C16.4266 18.9017 14.7488 19.5967 12.9993 19.5967C11.2499 19.5967 9.57207 18.9017 8.33502 17.6647C7.09796 16.4276 6.40299 14.7498 6.40299 13.0003C6.40299 11.2509 7.09796 9.57305 8.33502 8.33599ZM21.0587 7.38633C21.2105 7.24314 21.332 7.07095 21.416 6.87996C21.5001 6.68897 21.545 6.48306 21.548 6.27441C21.551 6.06576 21.5122 5.85863 21.4337 5.66527C21.3553 5.47191 21.2389 5.29625 21.0913 5.1487C20.9438 5.00115 20.7681 4.88471 20.5747 4.80626C20.3814 4.72782 20.1742 4.68896 19.9656 4.69201C19.757 4.69505 19.551 4.73992 19.36 4.82397C19.1691 4.90802 18.9969 5.02954 18.8537 5.18132C18.5752 5.47653 18.4228 5.86863 18.4287 6.27441C18.4346 6.68019 18.5984 7.06768 18.8854 7.35464C19.1723 7.6416 19.5598 7.80543 19.9656 7.81134C20.3714 7.81726 20.7635 7.6648 21.0587 7.38633Z" fill="#FE6601"/>
</svg>
