<svg width="17" height="25" viewBox="0 0 17 25" fill="none" xmlns="http://www.w3.org/2000/svg">
<path d="M8.45833 11.4792C7.65716 11.4792 6.8888 11.1609 6.32228 10.5944C5.75576 10.0279 5.4375 9.25951 5.4375 8.45833C5.4375 7.65716 5.75576 6.8888 6.32228 6.32228C6.8888 5.75576 7.65716 5.4375 8.45833 5.4375C9.25951 5.4375 10.0279 5.75576 10.5944 6.32228C11.1609 6.8888 11.4792 7.65716 11.4792 8.45833C11.4792 8.85503 11.401 9.24785 11.2492 9.61436C11.0974 9.98086 10.8749 10.3139 10.5944 10.5944C10.3139 10.8749 9.98086 11.0974 9.61436 11.2492C9.24785 11.401 8.85503 11.4792 8.45833 11.4792ZM8.45833 0C6.21504 0 4.06363 0.891143 2.47739 2.47739C0.891143 4.06363 0 6.21504 0 8.45833C0 14.8021 8.45833 24.1667 8.45833 24.1667C8.45833 24.1667 16.9167 14.8021 16.9167 8.45833C16.9167 6.21504 16.0255 4.06363 14.4393 2.47739C12.853 0.891143 10.7016 0 8.45833 0Z" fill="white"/>
</svg>
