<svg width="457" height="80" viewBox="0 0 457 80" fill="none" xmlns="http://www.w3.org/2000/svg">
<path d="M5 28.3217C5 46.0889 5.02147 50.6504 5.09302 50.7129C5.16458 50.7755 6.31664 51.435 7.4687 52.0668C7.62612 52.1571 8.0483 52.3932 8.39893 52.5945C8.7567 52.7889 9.17173 53.025 9.32916 53.1083C9.48658 53.1985 10.1306 53.5527 10.7603 53.9068C11.39 54.2609 12.0483 54.6288 12.22 54.726C12.3989 54.8232 12.7066 54.9898 12.8998 55.1079C13.1002 55.2259 13.5581 55.4758 13.9088 55.6772C15.8336 56.7533 18.0375 57.9822 18.3811 58.1766C18.5957 58.3017 19.1109 58.5863 19.5259 58.8154C19.941 59.0445 21.1646 59.7319 22.2451 60.3429C23.3255 60.9538 24.3559 61.5301 24.5349 61.6274C24.7138 61.7246 25.372 62.0925 26.0018 62.4466C27.254 63.1548 28.3703 63.7728 28.7567 63.988C28.8927 64.0644 29.4079 64.356 29.9016 64.6337C30.3954 64.9114 31.2326 65.3765 31.7621 65.6751C35.576 67.8066 36.8784 68.5357 38.0232 69.1814C38.3811 69.3827 38.796 69.6118 38.9535 69.702C39.4687 69.9798 41.1574 70.924 41.7799 71.2851C42.1162 71.4725 42.5313 71.7086 42.7102 71.8058C43.2826 72.1182 43.4544 72.2085 44.1485 72.6111C44.5277 72.8264 44.8712 73 44.9142 73C44.9785 73 45 67.5914 45 50.6921C45 38.4307 44.9714 28.3565 44.9428 28.3217C44.8998 28.2592 44.1055 27.7941 42.746 27.0373C42.6315 26.9748 42.195 26.7318 41.7799 26.5027C41.3649 26.2736 40.2057 25.6209 39.2039 25.0585C38.2022 24.4961 37.2647 23.9755 37.1288 23.8991C36.6207 23.6144 33.1431 21.6704 32.6923 21.4135C31.5688 20.7816 29.0501 19.3652 28.7567 19.2056C28.5778 19.1153 28.2558 18.9348 28.0411 18.8098C27.5474 18.5252 25.0429 17.1157 24.5921 16.8727C24.4061 16.7756 23.8981 16.4909 23.4615 16.2409C23.025 15.991 22.653 15.7897 22.6458 15.7897C22.6315 15.7897 22.3381 15.623 21.9875 15.4217C21.6369 15.2203 21.1718 14.9564 20.9571 14.8384C20.7424 14.7204 20.3631 14.5122 20.1198 14.3733C19.0823 13.797 18.7603 13.6095 18.4526 13.4429C18.2737 13.3457 17.5653 12.95 16.8784 12.5611C15.5259 11.7974 13.7442 10.7976 12.263 9.97136C11.7549 9.68674 11.1395 9.33958 10.9034 9.20767C10.6673 9.07575 10.3596 8.90912 10.2236 8.83275C10.0877 8.75637 9.04294 8.16622 7.89803 7.52746C5.33631 6.09026 5.17173 6 5.07871 6C5.02147 6 5 12.6791 5 28.3217Z" fill="#FE6601"/>
<path d="M88 28.3217C88 46.089 87.979 50.6504 87.9093 50.713C87.8395 50.7755 86.7163 51.435 85.593 52.0668C85.4395 52.1571 85.0279 52.3932 84.686 52.5945C84.3372 52.7889 83.9325 53.025 83.7791 53.1083C83.6256 53.1986 82.9976 53.5527 82.3837 53.9068C81.7698 54.2609 81.1279 54.6288 80.9604 54.726C80.786 54.8232 80.4861 54.9898 80.2976 55.1079C80.1023 55.2259 79.6558 55.4759 79.314 55.6772C77.4372 56.7534 75.2883 57.9822 74.9535 58.1767C74.7442 58.3017 74.2418 58.5863 73.8372 58.8155C73.4326 59.0445 72.2395 59.7319 71.186 60.3429C70.1325 60.9539 69.1279 61.5301 68.9535 61.6274C68.7791 61.7246 68.1372 62.0925 67.5232 62.4466C66.3023 63.1549 65.2139 63.7728 64.8372 63.988C64.7047 64.0644 64.2023 64.356 63.7209 64.6337C63.2395 64.9114 62.4232 65.3765 61.907 65.6751C58.1884 67.8066 56.9186 68.5357 55.8024 69.1814C55.4535 69.3827 55.0489 69.6118 54.8954 69.702C54.393 69.9798 52.7465 70.924 52.1395 71.2851C51.8117 71.4726 51.407 71.7086 51.2326 71.8058C50.6745 72.1182 50.507 72.2085 49.8302 72.6112C49.4605 72.8264 49.1255 73 49.0837 73C49.021 73 49 67.5914 49 50.6921C49 38.4308 49.0279 28.3565 49.0558 28.3217C49.0976 28.2592 49.8721 27.7941 51.1977 27.0373C51.3093 26.9748 51.7349 26.7318 52.1395 26.5027C52.5442 26.2736 53.6745 25.6209 54.6511 25.0585C55.6279 24.4961 56.5418 23.9755 56.6744 23.8991C57.1698 23.6144 60.5604 21.6704 61 21.4135C62.0954 20.7816 64.5511 19.3652 64.8372 19.2056C65.0116 19.1153 65.3256 18.9348 65.5349 18.8098C66.0163 18.5252 68.4582 17.1157 68.8977 16.8727C69.0791 16.7756 69.5744 16.4909 70 16.2409C70.4256 15.991 70.7884 15.7897 70.7954 15.7897C70.8093 15.7897 71.0953 15.623 71.4372 15.4217C71.7791 15.2203 72.2325 14.9564 72.4418 14.8384C72.6512 14.7204 73.0209 14.5122 73.2582 14.3733C74.2697 13.797 74.5837 13.6095 74.8837 13.4429C75.0581 13.3457 75.7488 12.95 76.4186 12.5611C77.7372 11.7974 79.4744 10.7976 80.9186 9.97145C81.414 9.68674 82.0139 9.33958 82.2441 9.20767C82.4744 9.07575 82.7744 8.90912 82.907 8.83275C83.0396 8.75637 84.0582 8.16622 85.1744 7.52746C87.6721 6.09026 87.8325 6 87.9232 6C87.979 6 88 12.6791 88 28.3217Z" fill="#FE6601"/>
<path d="M114 58V20H127.997C131.594 20 134.357 20.8866 136.289 22.66C138.22 24.3971 139.186 26.7857 139.186 29.8257C139.186 31.8886 138.8 33.6257 138.027 35.0371C137.284 36.4486 136.274 37.5343 134.996 38.2943C133.718 39.0543 132.336 39.4343 130.85 39.4343L131.653 37.8057C133.436 37.8057 135.01 38.1857 136.378 38.9457C137.745 39.7057 138.83 40.8277 139.632 42.3114C140.434 43.7591 140.836 45.5686 140.836 47.74C140.836 50.9971 139.825 53.5305 137.804 55.34C135.813 57.1134 132.842 58 128.889 58H114ZM118.458 53.6029H128.711C131.177 53.6029 133.065 53.0962 134.372 52.0829C135.679 51.0695 136.333 49.4771 136.333 47.3057C136.333 45.0981 135.679 43.4877 134.372 42.4743C133.065 41.4609 131.177 40.9543 128.711 40.9543H118.057V36.5571H127.596C129.855 36.5571 131.608 36.0505 132.856 35.0371C134.104 34.0238 134.729 32.5038 134.729 30.4771C134.729 28.4505 134.104 26.9305 132.856 25.9171C131.608 24.9038 129.855 24.3971 127.596 24.3971H118.458V53.6029ZM157.99 58V39V20H162.448V58H157.99ZM182.043 58V20H186.501V53.2771H203.396V58H182.043ZM218.764 58V20H223.221V58H218.764ZM242.817 58V20H246.472L260.469 48.7171H258.508L272.327 20H275.982L276.027 58H271.747L271.703 28.1971H272.728L260.425 53.3857H258.374L245.982 28.1971H247.096V58H242.817ZM299.567 48.8257L299.344 42.2029L317.041 20H322.123L308.438 37.5886L305.942 40.9543L299.567 48.8257ZM295.644 58V20H300.102V58H295.644ZM317.755 58L304.961 39.8686L307.948 35.8514L322.97 58H317.755ZM331.949 58L346.08 20H350.493L364.669 58H359.988L347.373 23.04H349.156L336.541 58H331.949ZM337.967 48.5L339.171 44.1571H356.734L358.027 48.5H337.967ZM379.577 58V20H383.232L403.872 51.2143H401.955V20H406.413V58H402.757L382.118 26.7857H384.035V58H379.577ZM421.28 58L435.411 20H439.824L454 58H449.319L436.704 23.04H438.487L425.872 58H421.28ZM427.298 48.5L428.502 44.1571H446.065L447.358 48.5H427.298Z" fill="#FE6601"/>
</svg>
