<svg width="25" height="21" viewBox="0 0 25 21" fill="none" xmlns="http://www.w3.org/2000/svg">
<path d="M0.500136 2.62473L11.2241 13.3499C11.5413 13.6674 11.9651 13.8558 12.4133 13.8788C12.8615 13.9018 13.3024 13.7577 13.6504 13.4744L13.7882 13.3499L24.5049 2.63198C24.5399 2.7649 24.5629 2.90023 24.575 3.03919L24.5846 3.25065V17.7507C24.5848 18.3603 24.3546 18.9476 23.94 19.3946C23.5254 19.8417 22.9572 20.1156 22.3492 20.1613L22.168 20.1673H2.83464C2.22494 20.1675 1.6377 19.9372 1.19064 19.5227C0.743579 19.1081 0.469738 18.5399 0.424011 17.9319L0.417969 17.7507V3.25065C0.417969 3.10565 0.430052 2.96548 0.454219 2.82773L0.500136 2.62473ZM22.168 0.833984C22.3142 0.833984 22.458 0.846068 22.5969 0.871443L22.8023 0.918568L12.5073 11.2136L2.20872 0.916151C2.34164 0.879901 2.47939 0.855734 2.61955 0.843651L2.83464 0.833984H22.168Z" fill="white"/>
</svg>
