<svg width="23" height="23" viewBox="0 0 23 23" fill="none" xmlns="http://www.w3.org/2000/svg">
<path d="M4.99917 10.0379C6.73917 13.4575 9.5425 16.2487 12.9621 18.0008L15.6204 15.3425C15.9467 15.0163 16.43 14.9075 16.8529 15.0525C18.2063 15.4996 19.6683 15.7413 21.1667 15.7413C21.8313 15.7413 22.375 16.285 22.375 16.9496V21.1667C22.375 21.8313 21.8313 22.375 21.1667 22.375C9.82042 22.375 0.625 13.1796 0.625 1.83333C0.625 1.16875 1.16875 0.625 1.83333 0.625H6.0625C6.72708 0.625 7.27083 1.16875 7.27083 1.83333C7.27083 3.34375 7.5125 4.79375 7.95958 6.14708C8.0925 6.57 7.99583 7.04125 7.6575 7.37958L4.99917 10.0379Z" fill="white"/>
</svg>
